<svg width="537" height="566" viewBox="0 0 537 566" fill="none" xmlns="http://www.w3.org/2000/svg">
<path d="M536.158 268.079C536.158 329.807 515.146 385.336 480.087 430.651C474.393 438.01 468.473 445.385 462.06 452.106C454.885 459.626 447.278 467.736 439.278 474.382C392.84 512.96 333.169 536.158 268.079 536.158C120.023 536.158 2.26498e-06 416.135 2.26498e-06 268.079C2.26498e-06 120.023 120.023 0 268.079 0C416.135 0 536.158 120.023 536.158 268.079Z" fill="#474747"/>
<path d="M536.158 268.079C536.158 329.807 515.146 385.336 480.087 430.651C474.393 438.01 468.473 445.385 462.06 452.106C454.885 459.626 447.278 467.736 439.278 474.382C392.84 512.96 333.169 536.158 268.079 536.158C120.023 536.158 2.26498e-06 416.135 2.26498e-06 268.079C2.26498e-06 120.023 120.023 0 268.079 0C416.135 0 536.158 120.023 536.158 268.079Z" fill="#F06449"/>
<path d="M515.145 267.968C515.145 352.019 453.507 449.033 389.4 493.69C360.977 503.754 320.429 515.145 267.968 515.145C131.456 515.145 20.7916 404.48 20.7916 267.968C20.7916 131.456 131.456 20.7916 267.968 20.7916C404.48 20.7916 515.145 131.456 515.145 267.968Z" fill="#E3C100"/>
<circle cx="267.968" cy="267.968" r="227.933" fill="#474747"/>
<circle cx="267.968" cy="267.968" r="227.933" fill="#043C3F"/>
<path d="M473.842 269.185C473.842 323.316 452.865 372.549 418.597 409.196C381.177 449.213 327.91 474.225 268.801 474.225C155.56 474.225 63.7606 382.425 63.7606 269.185C63.7606 155.944 155.56 64.1442 268.801 64.1442C382.042 64.1442 473.842 155.944 473.842 269.185Z" fill="#4CA5FF"/>
<circle cx="268.079" cy="268.079" r="185.797" fill="#474747"/>
<circle cx="268.079" cy="268.079" r="185.797" fill="#113654"/>
<circle cx="268.079" cy="268.079" r="165.227" fill="#474747"/>
<circle cx="268.079" cy="268.079" r="165.227" fill="#113654"/>
<path d="M418.882 409.499C423.225 404.904 430.632 405.223 434.563 410.175V410.175C437.783 414.229 437.525 420.035 433.958 423.788L307.067 557.316C303.226 561.359 296.841 561.539 292.777 557.721V557.721C288.688 553.879 288.497 547.447 292.351 543.37L418.882 409.499Z" fill="#043C3F"/>
<path d="M400.241 399.075C403.773 395.338 409.59 394.957 413.579 398.202L418.833 402.476C420.776 404.056 420.841 407.001 418.968 408.665V408.665L392.45 437.49L279.819 557.263C275.821 561.514 269.135 561.721 264.882 557.725V557.725C260.619 553.72 260.42 547.014 264.438 542.763L400.241 399.075Z" fill="#4CA5FF"/>
<rect x="390.251" y="379.279" width="20.5462" height="235.294" rx="10.2731" transform="rotate(43.2165 390.251 379.279)" fill="#113654"/>
<path d="M454.459 429.891C459.338 424.699 467.906 426.011 471.008 432.425V432.425C472.837 436.207 472.149 440.725 469.277 443.791L363.054 557.207C359.168 561.357 352.651 561.565 348.507 557.672V557.672C344.368 553.782 344.165 547.274 348.054 543.135L454.459 429.891Z" fill="#F06449"/>
<path d="M436.842 421.043C441.363 416.301 449.219 417.485 452.142 423.349V423.349C453.906 426.889 453.28 431.155 450.57 434.038L334.794 557.245C330.986 561.297 324.614 561.496 320.561 557.688V557.688C316.487 553.86 316.311 547.446 320.169 543.4L436.842 421.043Z" fill="#E3C100"/>
</svg>
