<svg width="542" height="91" viewBox="0 0 542 91" fill="none" xmlns="http://www.w3.org/2000/svg">
<path d="M18.0439 45.7344H31.5146C33.7275 45.7344 35.5967 44.9932 37.1221 43.5107C38.6689 42.0068 39.4424 39.8906 39.4424 37.1621C39.4424 35.1211 38.6367 33.2949 37.0254 31.6836C35.4141 30.0508 33.5771 29.2344 31.5146 29.2344H11.5986V71H9.27832V26.9141H31.5146C34.2217 26.9141 36.6064 27.9561 38.6689 30.04C40.7314 32.124 41.7627 34.498 41.7627 37.1621C41.7627 40.4492 40.7637 43.0918 38.7656 45.0898C36.7676 47.0664 34.3506 48.0547 31.5146 48.0547H18.0439V45.7344ZM18.0439 50.375H31.5146C33.749 50.375 35.8115 49.8379 37.7021 48.7637C39.6143 47.668 41.1504 46.0996 42.3105 44.0586C43.4922 42.0176 44.083 39.7188 44.083 37.1621C44.083 33.8535 42.8154 30.9316 40.2803 28.3965C37.7666 25.8613 34.8447 24.5938 31.5146 24.5938H6.95801V71H4.6377V22.2734H31.5146C34.1143 22.2734 36.5635 22.9609 38.8623 24.3359C41.1611 25.7109 42.9873 27.5479 44.3408 29.8467C45.7158 32.1455 46.4033 34.584 46.4033 37.1621C46.4033 40.084 45.7158 42.748 44.3408 45.1543C42.9658 47.5391 41.1396 49.3975 38.8623 50.7295C36.6064 52.04 34.1572 52.6953 31.5146 52.6953H18.0439V50.375ZM18.0439 55.0156H31.5146C33.8135 55.0156 36.0156 54.5645 38.1211 53.6621C40.2266 52.7383 42.0527 51.5029 43.5996 49.9561C45.168 48.3877 46.4141 46.4971 47.3379 44.2842C48.2617 42.0498 48.7236 39.6758 48.7236 37.1621C48.7236 34.1543 47.9395 31.3291 46.3711 28.6865C44.8027 26.0225 42.6865 23.9062 40.0225 22.3379C37.3799 20.748 34.5439 19.9531 31.5146 19.9531H2.31738V71H-0.00292969V17.6328H31.5146C34.9521 17.6328 38.1748 18.5352 41.1826 20.3398C44.1904 22.123 46.5859 24.5186 48.3691 27.5264C50.1523 30.5342 51.0439 33.7461 51.0439 37.1621C51.0439 40.2129 50.5176 43.0273 49.4648 45.6055C48.4121 48.1621 46.9941 50.2891 45.2109 51.9863C43.4277 53.6836 41.3545 55.0049 38.9912 55.9502C36.6279 56.874 34.1357 57.3359 31.5146 57.3359H18.0439V55.0156ZM16.2393 71H13.9189V31.5547H31.5146C33.04 31.5547 34.3506 32.1133 35.4463 33.2305C36.5635 34.3477 37.1221 35.6582 37.1221 37.1621C37.1221 41.3301 35.2529 43.4141 31.5146 43.4141H18.0439V41.0938H31.5146C32.5459 41.0938 33.3516 40.8037 33.9316 40.2236C34.5117 39.6436 34.8018 38.623 34.8018 37.1621C34.8018 36.2168 34.4795 35.4326 33.835 34.8096C33.2119 34.1865 32.4385 33.875 31.5146 33.875H16.2393V71ZM56.1357 24.5938H58.4561V71H56.1357V24.5938ZM70.0576 24.5938H72.3779V59.3984H89.4902V61.7188H72.3779V64.0391H89.4902V66.3594H72.3779V68.6797H89.4902V71H70.0576V24.5938ZM65.417 24.5938H67.7373V71H65.417V24.5938ZM60.7764 24.5938H63.0967V71H60.7764V24.5938ZM127.55 48.1191C127.55 45.3691 126.701 43.2422 125.004 41.7383C123.307 40.2344 121.062 39.4824 118.269 39.4824C115.905 39.4824 113.875 40.2988 112.178 41.9316C110.48 43.5645 109.632 45.5195 109.632 47.7969C109.632 49.0859 109.804 50.2461 110.147 51.2773C110.491 52.2871 110.953 53.1357 111.533 53.8232C112.135 54.4893 112.844 55.0479 113.66 55.499C114.477 55.9287 115.325 56.2402 116.206 56.4336C117.108 56.627 118.064 56.7236 119.074 56.7236C121.523 56.7236 123.758 56.1221 125.777 54.9189V57.2393C123.693 58.335 121.448 58.8828 119.042 58.8828C117.495 58.8828 116.034 58.6787 114.659 58.2705C113.306 57.8408 112.07 57.207 110.953 56.3691C109.836 55.5098 108.944 54.3496 108.278 52.8887C107.634 51.4062 107.312 49.709 107.312 47.7969C107.312 44.832 108.354 42.3184 110.438 40.2559C112.521 38.1934 115.132 37.1621 118.269 37.1621C121.728 37.1621 124.521 38.1396 126.647 40.0947C128.796 42.0283 129.87 44.7031 129.87 48.1191V71H127.55V48.1191ZM134.511 48.1191V71H132.19V48.1191C132.19 44.0586 130.891 40.8359 128.291 38.4512C125.691 36.0449 122.351 34.8418 118.269 34.8418C114.487 34.8418 111.329 36.0986 108.794 38.6123C106.259 41.126 104.991 44.1875 104.991 47.7969C104.991 49.9883 105.367 51.9541 106.119 53.6943C106.893 55.4346 107.935 56.8311 109.245 57.8838C110.556 58.9365 112.017 59.7422 113.628 60.3008C115.261 60.8379 116.979 61.1064 118.784 61.1064C121.233 61.1064 123.564 60.5371 125.777 59.3984V61.8477C123.457 62.8145 121.115 63.2979 118.752 63.2979C116.625 63.2979 114.605 62.9756 112.693 62.3311C110.781 61.665 109.073 60.709 107.569 59.4629C106.065 58.1953 104.873 56.5625 103.992 54.5645C103.111 52.5449 102.671 50.2891 102.671 47.7969C102.671 43.5645 104.164 39.9658 107.15 37.001C110.158 34.0146 113.864 32.5215 118.269 32.5215C121.362 32.5215 124.134 33.1553 126.583 34.4229C129.032 35.6689 130.966 37.4844 132.384 39.8691C133.802 42.2539 134.511 45.0039 134.511 48.1191ZM139.151 48.1191V71H136.831V48.1191C136.831 44.5742 136.015 41.4375 134.382 38.709C132.771 35.959 130.558 33.8535 127.743 32.3926C124.929 30.9316 121.771 30.2012 118.269 30.2012C114.938 30.2012 111.898 30.9961 109.148 32.5859C106.398 34.1543 104.239 36.2812 102.671 38.9668C101.124 41.6523 100.351 44.5957 100.351 47.7969C100.351 50.5469 100.855 53.0605 101.865 55.3379C102.875 57.5938 104.229 59.4521 105.926 60.9131C107.645 62.374 109.589 63.5127 111.759 64.3291C113.95 65.124 116.238 65.5215 118.623 65.5215C121.051 65.5215 123.436 65.0166 125.777 64.0068V66.3594C123.328 67.2832 120.922 67.7451 118.559 67.7451C114.842 67.7451 111.426 66.9072 108.311 65.2314C105.195 63.5557 102.703 61.1816 100.834 58.1094C98.9648 55.0371 98.0303 51.5996 98.0303 47.7969C98.0303 45.0898 98.5459 42.5117 99.5771 40.0625C100.63 37.6133 102.048 35.4971 103.831 33.7139C105.614 31.9307 107.763 30.5127 110.276 29.46C112.79 28.4072 115.454 27.8809 118.269 27.8809C122.2 27.8809 125.745 28.7188 128.903 30.3945C132.083 32.0703 134.586 34.4551 136.412 37.5488C138.238 40.6426 139.151 44.166 139.151 48.1191ZM143.792 48.1191V71H141.472V48.1191C141.472 43.7363 140.451 39.8262 138.41 36.3887C136.369 32.9297 133.587 30.2656 130.063 28.3965C126.54 26.5059 122.608 25.5605 118.269 25.5605C114.101 25.5605 110.287 26.5596 106.828 28.5576C103.369 30.5557 100.651 33.2627 98.6748 36.6787C96.6982 40.0732 95.71 43.7793 95.71 47.7969C95.71 50.4395 96.1289 52.9531 96.9668 55.3379C97.8262 57.7012 98.9863 59.7744 100.447 61.5576C101.93 63.3193 103.627 64.8447 105.539 66.1338C107.473 67.4229 109.546 68.4004 111.759 69.0664C113.993 69.7324 116.26 70.0654 118.559 70.0654C121.094 70.0654 123.5 69.582 125.777 68.6152V71C123.393 71.8379 120.943 72.2568 118.43 72.2568C115.83 72.2568 113.295 71.8916 110.824 71.1611C108.375 70.4307 106.098 69.3564 103.992 67.9385C101.908 66.499 100.071 64.8125 98.4814 62.8789C96.8916 60.9238 95.6455 58.6465 94.7432 56.0469C93.8408 53.4473 93.3896 50.6973 93.3896 47.7969C93.3896 44.4668 94.0127 41.2979 95.2588 38.29C96.5264 35.2607 98.2451 32.6504 100.415 30.459C102.606 28.2461 105.249 26.4951 108.343 25.2061C111.458 23.8955 114.767 23.2402 118.269 23.2402C121.835 23.2402 125.187 23.8418 128.323 25.0449C131.46 26.248 134.167 27.9238 136.444 30.0723C138.722 32.1992 140.516 34.8203 141.826 37.9355C143.137 41.0508 143.792 44.4453 143.792 48.1191ZM191.648 24.5938H193.969L179.37 55.3379V71H177.05V55.3379L191.648 24.5938ZM187.008 24.5938H189.328L174.729 55.3379V71H172.409V55.3379L187.008 24.5938ZM182.367 24.5938H184.688L170.089 55.3379V71H167.769V55.3379L182.367 24.5938ZM177.727 24.5938H180.047L165.448 55.3379V71H163.128V55.3379L147.562 24.5938H149.883L164.256 52.9854L177.727 24.5938ZM152.235 24.5938H154.556L166.061 46.4756L164.9 49.0215L152.235 24.5938ZM156.876 24.5938H159.229L168.381 41.3838L167.188 43.9297L156.876 24.5938ZM161.581 24.5938H163.901L170.701 36.3242L169.541 38.8701L161.581 24.5938ZM202.808 3.8H245.24V15.896H215.48V31.256H244.088V43.352H215.48V58.904H246.392V71H202.808V3.8ZM273.301 71H261.205V23.384H273.301V30.488H275.029C276.117 27.8 277.877 25.72 280.309 24.248C282.741 22.776 285.589 22.04 288.853 22.04C291.157 22.04 293.301 22.424 295.285 23.192C297.333 23.896 299.125 25.016 300.661 26.552C302.197 28.088 303.381 30.04 304.213 32.408C305.109 34.776 305.557 37.592 305.557 40.856V71H293.461V43.928C293.461 40.536 292.629 37.88 290.965 35.96C289.365 33.976 287.029 32.984 283.957 32.984C280.373 32.984 277.685 34.2 275.893 36.632C274.165 39 273.301 42.2 273.301 46.232V71ZM353.97 64.088H352.242C351.73 65.176 351.09 66.232 350.322 67.256C349.618 68.216 348.658 69.08 347.442 69.848C346.29 70.616 344.882 71.224 343.218 71.672C341.618 72.12 339.666 72.344 337.362 72.344C334.418 72.344 331.666 71.832 329.106 70.808C326.61 69.72 324.402 68.152 322.482 66.104C320.626 63.992 319.154 61.432 318.066 58.424C317.042 55.416 316.53 51.96 316.53 48.056V46.328C316.53 42.488 317.074 39.064 318.162 36.056C319.314 33.048 320.85 30.52 322.77 28.472C324.754 26.36 327.026 24.76 329.586 23.672C332.21 22.584 334.962 22.04 337.842 22.04C341.682 22.04 344.722 22.776 346.962 24.248C349.202 25.656 350.962 27.672 352.242 30.296H353.97V23.384H366.066V82.712C366.066 84.888 365.362 86.68 363.954 88.088C362.61 89.496 360.85 90.2 358.674 90.2H326.61V78.68H351.378C353.106 78.68 353.97 77.72 353.97 75.8V64.088ZM341.298 60.824C345.074 60.824 348.114 59.64 350.418 57.272C352.786 54.84 353.97 51.672 353.97 47.768V46.616C353.97 42.712 352.786 39.576 350.418 37.208C348.114 34.776 345.074 33.56 341.298 33.56C337.522 33.56 334.45 34.744 332.082 37.112C329.778 39.416 328.626 42.584 328.626 46.616V47.768C328.626 51.8 329.778 55 332.082 57.368C334.45 59.672 337.522 60.824 341.298 60.824ZM379.631 59.48H395.759V34.904H380.783V23.384H407.855V59.48H421.679V71H379.631V59.48ZM410.831 9.272C410.831 10.552 410.575 11.768 410.063 12.92C409.615 14.008 408.975 14.968 408.143 15.8C407.311 16.568 406.319 17.208 405.167 17.72C404.079 18.168 402.927 18.392 401.711 18.392C400.431 18.392 399.247 18.168 398.159 17.72C397.071 17.208 396.111 16.568 395.279 15.8C394.447 14.968 393.775 14.008 393.263 12.92C392.815 11.768 392.591 10.552 392.591 9.272C392.591 7.992 392.815 6.808 393.263 5.72C393.775 4.568 394.447 3.608 395.279 2.84C396.111 2.008 397.071 1.368 398.159 0.919998C399.247 0.407997 400.431 0.151997 401.711 0.151997C402.927 0.151997 404.079 0.407997 405.167 0.919998C406.319 1.368 407.311 2.008 408.143 2.84C408.975 3.608 409.615 4.568 410.063 5.72C410.575 6.808 410.831 7.992 410.831 9.272ZM449.645 71H437.549V23.384H449.645V30.488H451.373C452.461 27.8 454.221 25.72 456.653 24.248C459.085 22.776 461.933 22.04 465.197 22.04C467.501 22.04 469.645 22.424 471.629 23.192C473.677 23.896 475.469 25.016 477.005 26.552C478.541 28.088 479.725 30.04 480.557 32.408C481.453 34.776 481.901 37.592 481.901 40.856V71H469.805V43.928C469.805 40.536 468.973 37.88 467.309 35.96C465.709 33.976 463.373 32.984 460.301 32.984C456.717 32.984 454.029 34.2 452.237 36.632C450.509 39 449.645 42.2 449.645 46.232V71ZM506.986 51.128C507.05 52.536 507.37 53.848 507.946 55.064C508.586 56.216 509.418 57.24 510.442 58.136C511.53 58.968 512.746 59.64 514.09 60.152C515.498 60.6 516.97 60.824 518.506 60.824C521.514 60.824 523.818 60.312 525.418 59.288C527.018 58.2 528.17 56.92 528.874 55.448L539.242 61.208C538.666 62.424 537.866 63.704 536.842 65.048C535.818 66.328 534.474 67.512 532.81 68.6C531.21 69.688 529.226 70.584 526.858 71.288C524.554 71.992 521.834 72.344 518.698 72.344C515.114 72.344 511.85 71.768 508.906 70.616C505.962 69.464 503.402 67.8 501.226 65.624C499.114 63.448 497.45 60.792 496.234 57.656C495.082 54.52 494.506 50.968 494.506 47V46.424C494.506 42.776 495.114 39.448 496.33 36.44C497.61 33.432 499.338 30.872 501.514 28.76C503.69 26.648 506.218 25.016 509.098 23.864C512.042 22.648 515.178 22.04 518.506 22.04C522.602 22.04 526.122 22.776 529.066 24.248C532.01 25.656 534.442 27.48 536.362 29.72C538.282 31.896 539.69 34.328 540.586 37.016C541.482 39.64 541.93 42.2 541.93 44.696V51.128H506.986ZM518.41 32.984C515.338 32.984 512.842 33.784 510.922 35.384C509.002 36.92 507.754 38.712 507.178 40.76H529.642C529.258 38.52 528.042 36.664 525.994 35.192C524.01 33.72 521.482 32.984 518.41 32.984Z" fill="black"/>
</svg>
