	<svg
					width="551"
					height="142"
					viewBox="0 0 551 142"
					fill="none"
					xmlns="http://www.w3.org/2000/svg"
					xmlns:xlink="http://www.w3.org/1999/xlink"
				>
					<mask
						id="mask0_3_12"
						style="mask-type:alpha"
						maskUnits="userSpaceOnUse"
						x="2"
						y="36"
						width="543"
						height="91"
					>
						<path
							d="M21.0439 81.7344H34.5146C36.7275 81.7344 38.5967 80.9932 40.1221 79.5107C41.6689 78.0068 42.4424 75.8906 42.4424 73.1621C42.4424 71.1211 41.6367 69.2949 40.0254 67.6836C38.4141 66.0508 36.5771 65.2344 34.5146 65.2344H14.5986V107H12.2783V62.9141H34.5146C37.2217 62.9141 39.6064 63.9561 41.6689 66.04C43.7314 68.124 44.7627 70.498 44.7627 73.1621C44.7627 76.4492 43.7637 79.0918 41.7656 81.0898C39.7676 83.0664 37.3506 84.0547 34.5146 84.0547H21.0439V81.7344ZM21.0439 86.375H34.5146C36.749 86.375 38.8115 85.8379 40.7021 84.7637C42.6143 83.668 44.1504 82.0996 45.3105 80.0586C46.4922 78.0176 47.083 75.7188 47.083 73.1621C47.083 69.8535 45.8154 66.9316 43.2803 64.3965C40.7666 61.8613 37.8447 60.5938 34.5146 60.5938H9.95801V107H7.6377V58.2734H34.5146C37.1143 58.2734 39.5635 58.9609 41.8623 60.3359C44.1611 61.7109 45.9873 63.5479 47.3408 65.8467C48.7158 68.1455 49.4033 70.584 49.4033 73.1621C49.4033 76.084 48.7158 78.748 47.3408 81.1543C45.9658 83.5391 44.1396 85.3975 41.8623 86.7295C39.6064 88.04 37.1572 88.6953 34.5146 88.6953H21.0439V86.375ZM21.0439 91.0156H34.5146C36.8135 91.0156 39.0156 90.5645 41.1211 89.6621C43.2266 88.7383 45.0527 87.5029 46.5996 85.9561C48.168 84.3877 49.4141 82.4971 50.3379 80.2842C51.2617 78.0498 51.7236 75.6758 51.7236 73.1621C51.7236 70.1543 50.9395 67.3291 49.3711 64.6865C47.8027 62.0225 45.6865 59.9062 43.0225 58.3379C40.3799 56.748 37.5439 55.9531 34.5146 55.9531H5.31738V107H2.99707V53.6328H34.5146C37.9521 53.6328 41.1748 54.5352 44.1826 56.3398C47.1904 58.123 49.5859 60.5186 51.3691 63.5264C53.1523 66.5342 54.0439 69.7461 54.0439 73.1621C54.0439 76.2129 53.5176 79.0273 52.4648 81.6055C51.4121 84.1621 49.9941 86.2891 48.2109 87.9863C46.4277 89.6836 44.3545 91.0049 41.9912 91.9502C39.6279 92.874 37.1357 93.3359 34.5146 93.3359H21.0439V91.0156ZM19.2393 107H16.9189V67.5547H34.5146C36.04 67.5547 37.3506 68.1133 38.4463 69.2305C39.5635 70.3477 40.1221 71.6582 40.1221 73.1621C40.1221 77.3301 38.2529 79.4141 34.5146 79.4141H21.0439V77.0938H34.5146C35.5459 77.0938 36.3516 76.8037 36.9316 76.2236C37.5117 75.6436 37.8018 74.623 37.8018 73.1621C37.8018 72.2168 37.4795 71.4326 36.835 70.8096C36.2119 70.1865 35.4385 69.875 34.5146 69.875H19.2393V107ZM59.1357 60.5938H61.4561V107H59.1357V60.5938ZM73.0576 60.5938H75.3779V95.3984H92.4902V97.7188H75.3779V100.039H92.4902V102.359H75.3779V104.68H92.4902V107H73.0576V60.5938ZM68.417 60.5938H70.7373V107H68.417V60.5938ZM63.7764 60.5938H66.0967V107H63.7764V60.5938ZM130.55 84.1191C130.55 81.3691 129.701 79.2422 128.004 77.7383C126.307 76.2344 124.062 75.4824 121.269 75.4824C118.905 75.4824 116.875 76.2988 115.178 77.9316C113.48 79.5645 112.632 81.5195 112.632 83.7969C112.632 85.0859 112.804 86.2461 113.147 87.2773C113.491 88.2871 113.953 89.1357 114.533 89.8232C115.135 90.4893 115.844 91.0479 116.66 91.499C117.477 91.9287 118.325 92.2402 119.206 92.4336C120.108 92.627 121.064 92.7236 122.074 92.7236C124.523 92.7236 126.758 92.1221 128.777 90.9189V93.2393C126.693 94.335 124.448 94.8828 122.042 94.8828C120.495 94.8828 119.034 94.6787 117.659 94.2705C116.306 93.8408 115.07 93.207 113.953 92.3691C112.836 91.5098 111.944 90.3496 111.278 88.8887C110.634 87.4062 110.312 85.709 110.312 83.7969C110.312 80.832 111.354 78.3184 113.438 76.2559C115.521 74.1934 118.132 73.1621 121.269 73.1621C124.728 73.1621 127.521 74.1396 129.647 76.0947C131.796 78.0283 132.87 80.7031 132.87 84.1191V107H130.55V84.1191ZM137.511 84.1191V107H135.19V84.1191C135.19 80.0586 133.891 76.8359 131.291 74.4512C128.691 72.0449 125.351 70.8418 121.269 70.8418C117.487 70.8418 114.329 72.0986 111.794 74.6123C109.259 77.126 107.991 80.1875 107.991 83.7969C107.991 85.9883 108.367 87.9541 109.119 89.6943C109.893 91.4346 110.935 92.8311 112.245 93.8838C113.556 94.9365 115.017 95.7422 116.628 96.3008C118.261 96.8379 119.979 97.1064 121.784 97.1064C124.233 97.1064 126.564 96.5371 128.777 95.3984V97.8477C126.457 98.8145 124.115 99.2979 121.752 99.2979C119.625 99.2979 117.605 98.9756 115.693 98.3311C113.781 97.665 112.073 96.709 110.569 95.4629C109.065 94.1953 107.873 92.5625 106.992 90.5645C106.111 88.5449 105.671 86.2891 105.671 83.7969C105.671 79.5645 107.164 75.9658 110.15 73.001C113.158 70.0146 116.864 68.5215 121.269 68.5215C124.362 68.5215 127.134 69.1553 129.583 70.4229C132.032 71.6689 133.966 73.4844 135.384 75.8691C136.802 78.2539 137.511 81.0039 137.511 84.1191ZM142.151 84.1191V107H139.831V84.1191C139.831 80.5742 139.015 77.4375 137.382 74.709C135.771 71.959 133.558 69.8535 130.743 68.3926C127.929 66.9316 124.771 66.2012 121.269 66.2012C117.938 66.2012 114.898 66.9961 112.148 68.5859C109.398 70.1543 107.239 72.2812 105.671 74.9668C104.124 77.6523 103.351 80.5957 103.351 83.7969C103.351 86.5469 103.855 89.0605 104.865 91.3379C105.875 93.5938 107.229 95.4521 108.926 96.9131C110.645 98.374 112.589 99.5127 114.759 100.329C116.95 101.124 119.238 101.521 121.623 101.521C124.051 101.521 126.436 101.017 128.777 100.007V102.359C126.328 103.283 123.922 103.745 121.559 103.745C117.842 103.745 114.426 102.907 111.311 101.231C108.195 99.5557 105.703 97.1816 103.834 94.1094C101.965 91.0371 101.03 87.5996 101.03 83.7969C101.03 81.0898 101.546 78.5117 102.577 76.0625C103.63 73.6133 105.048 71.4971 106.831 69.7139C108.614 67.9307 110.763 66.5127 113.276 65.46C115.79 64.4072 118.454 63.8809 121.269 63.8809C125.2 63.8809 128.745 64.7188 131.903 66.3945C135.083 68.0703 137.586 70.4551 139.412 73.5488C141.238 76.6426 142.151 80.166 142.151 84.1191ZM146.792 84.1191V107H144.472V84.1191C144.472 79.7363 143.451 75.8262 141.41 72.3887C139.369 68.9297 136.587 66.2656 133.063 64.3965C129.54 62.5059 125.608 61.5605 121.269 61.5605C117.101 61.5605 113.287 62.5596 109.828 64.5576C106.369 66.5557 103.651 69.2627 101.675 72.6787C99.6982 76.0732 98.71 79.7793 98.71 83.7969C98.71 86.4395 99.1289 88.9531 99.9668 91.3379C100.826 93.7012 101.986 95.7744 103.447 97.5576C104.93 99.3193 106.627 100.845 108.539 102.134C110.473 103.423 112.546 104.4 114.759 105.066C116.993 105.732 119.26 106.065 121.559 106.065C124.094 106.065 126.5 105.582 128.777 104.615V107C126.393 107.838 123.943 108.257 121.43 108.257C118.83 108.257 116.295 107.892 113.824 107.161C111.375 106.431 109.098 105.356 106.992 103.938C104.908 102.499 103.071 100.812 101.481 98.8789C99.8916 96.9238 98.6455 94.6465 97.7432 92.0469C96.8408 89.4473 96.3896 86.6973 96.3896 83.7969C96.3896 80.4668 97.0127 77.2979 98.2588 74.29C99.5264 71.2607 101.245 68.6504 103.415 66.459C105.606 64.2461 108.249 62.4951 111.343 61.2061C114.458 59.8955 117.767 59.2402 121.269 59.2402C124.835 59.2402 128.187 59.8418 131.323 61.0449C134.46 62.248 137.167 63.9238 139.444 66.0723C141.722 68.1992 143.516 70.8203 144.826 73.9355C146.137 77.0508 146.792 80.4453 146.792 84.1191ZM194.648 60.5938H196.969L182.37 91.3379V107H180.05V91.3379L194.648 60.5938ZM190.008 60.5938H192.328L177.729 91.3379V107H175.409V91.3379L190.008 60.5938ZM185.367 60.5938H187.688L173.089 91.3379V107H170.769V91.3379L185.367 60.5938ZM180.727 60.5938H183.047L168.448 91.3379V107H166.128V91.3379L150.562 60.5938H152.883L167.256 88.9854L180.727 60.5938ZM155.235 60.5938H157.556L169.061 82.4756L167.9 85.0215L155.235 60.5938ZM159.876 60.5938H162.229L171.381 77.3838L170.188 79.9297L159.876 60.5938ZM164.581 60.5938H166.901L173.701 72.3242L172.541 74.8701L164.581 60.5938ZM205.808 39.8H248.24V51.896H218.48V67.256H247.088V79.352H218.48V94.904H249.392V107H205.808V39.8ZM276.301 107H264.205V59.384H276.301V66.488H278.029C279.117 63.8 280.877 61.72 283.309 60.248C285.741 58.776 288.589 58.04 291.853 58.04C294.157 58.04 296.301 58.424 298.285 59.192C300.333 59.896 302.125 61.016 303.661 62.552C305.197 64.088 306.381 66.04 307.213 68.408C308.109 70.776 308.557 73.592 308.557 76.856V107H296.461V79.928C296.461 76.536 295.629 73.88 293.965 71.96C292.365 69.976 290.029 68.984 286.957 68.984C283.373 68.984 280.685 70.2 278.893 72.632C277.165 75 276.301 78.2 276.301 82.232V107ZM356.97 100.088H355.242C354.73 101.176 354.09 102.232 353.322 103.256C352.618 104.216 351.658 105.08 350.442 105.848C349.29 106.616 347.882 107.224 346.218 107.672C344.618 108.12 342.666 108.344 340.362 108.344C337.418 108.344 334.666 107.832 332.106 106.808C329.61 105.72 327.402 104.152 325.482 102.104C323.626 99.992 322.154 97.432 321.066 94.424C320.042 91.416 319.53 87.96 319.53 84.056V82.328C319.53 78.488 320.074 75.064 321.162 72.056C322.314 69.048 323.85 66.52 325.77 64.472C327.754 62.36 330.026 60.76 332.586 59.672C335.21 58.584 337.962 58.04 340.842 58.04C344.682 58.04 347.722 58.776 349.962 60.248C352.202 61.656 353.962 63.672 355.242 66.296H356.97V59.384H369.066V118.712C369.066 120.888 368.362 122.68 366.954 124.088C365.61 125.496 363.85 126.2 361.674 126.2H329.61V114.68H354.378C356.106 114.68 356.97 113.72 356.97 111.8V100.088ZM344.298 96.824C348.074 96.824 351.114 95.64 353.418 93.272C355.786 90.84 356.97 87.672 356.97 83.768V82.616C356.97 78.712 355.786 75.576 353.418 73.208C351.114 70.776 348.074 69.56 344.298 69.56C340.522 69.56 337.45 70.744 335.082 73.112C332.778 75.416 331.626 78.584 331.626 82.616V83.768C331.626 87.8 332.778 91 335.082 93.368C337.45 95.672 340.522 96.824 344.298 96.824ZM382.631 95.48H398.759V70.904H383.783V59.384H410.855V95.48H424.679V107H382.631V95.48ZM413.831 45.272C413.831 46.552 413.575 47.768 413.063 48.92C412.615 50.008 411.975 50.968 411.143 51.8C410.311 52.568 409.319 53.208 408.167 53.72C407.079 54.168 405.927 54.392 404.711 54.392C403.431 54.392 402.247 54.168 401.159 53.72C400.071 53.208 399.111 52.568 398.279 51.8C397.447 50.968 396.775 50.008 396.263 48.92C395.815 47.768 395.591 46.552 395.591 45.272C395.591 43.992 395.815 42.808 396.263 41.72C396.775 40.568 397.447 39.608 398.279 38.84C399.111 38.008 400.071 37.368 401.159 36.92C402.247 36.408 403.431 36.152 404.711 36.152C405.927 36.152 407.079 36.408 408.167 36.92C409.319 37.368 410.311 38.008 411.143 38.84C411.975 39.608 412.615 40.568 413.063 41.72C413.575 42.808 413.831 43.992 413.831 45.272ZM452.645 107H440.549V59.384H452.645V66.488H454.373C455.461 63.8 457.221 61.72 459.653 60.248C462.085 58.776 464.933 58.04 468.197 58.04C470.501 58.04 472.645 58.424 474.629 59.192C476.677 59.896 478.469 61.016 480.005 62.552C481.541 64.088 482.725 66.04 483.557 68.408C484.453 70.776 484.901 73.592 484.901 76.856V107H472.805V79.928C472.805 76.536 471.973 73.88 470.309 71.96C468.709 69.976 466.373 68.984 463.301 68.984C459.717 68.984 457.029 70.2 455.237 72.632C453.509 75 452.645 78.2 452.645 82.232V107ZM509.986 87.128C510.05 88.536 510.37 89.848 510.946 91.064C511.586 92.216 512.418 93.24 513.442 94.136C514.53 94.968 515.746 95.64 517.09 96.152C518.498 96.6 519.97 96.824 521.506 96.824C524.514 96.824 526.818 96.312 528.418 95.288C530.018 94.2 531.17 92.92 531.874 91.448L542.242 97.208C541.666 98.424 540.866 99.704 539.842 101.048C538.818 102.328 537.474 103.512 535.81 104.6C534.21 105.688 532.226 106.584 529.858 107.288C527.554 107.992 524.834 108.344 521.698 108.344C518.114 108.344 514.85 107.768 511.906 106.616C508.962 105.464 506.402 103.8 504.226 101.624C502.114 99.448 500.45 96.792 499.234 93.656C498.082 90.52 497.506 86.968 497.506 83V82.424C497.506 78.776 498.114 75.448 499.33 72.44C500.61 69.432 502.338 66.872 504.514 64.76C506.69 62.648 509.218 61.016 512.098 59.864C515.042 58.648 518.178 58.04 521.506 58.04C525.602 58.04 529.122 58.776 532.066 60.248C535.01 61.656 537.442 63.48 539.362 65.72C541.282 67.896 542.69 70.328 543.586 73.016C544.482 75.64 544.93 78.2 544.93 80.696V87.128H509.986ZM521.41 68.984C518.338 68.984 515.842 69.784 513.922 71.384C512.002 72.92 510.754 74.712 510.178 76.76H532.642C532.258 74.52 531.042 72.664 528.994 71.192C527.01 69.72 524.482 68.984 521.41 68.984Z"
							fill="black"
						/>
					</mask>
					<g mask="url(#mask0_3_12)">
						<rect x="-23" y="20" width="611" height="122" fill="url(#pattern0)" />
					</g>
					<defs>
						<pattern id="pattern0" patternContentUnits="objectBoundingBox" width="1" height="1">
							<use
								xlink:href="#image0_3_12"
								transform="matrix(0.000298864 0 0 0.00149677 0 -0.941391)"
							/>
						</pattern>
					</defs>
				</svg>