<svg width="593" height="91" viewBox="0 0 593 91" fill="none" xmlns="http://www.w3.org/2000/svg">
<path d="M23.4644 39.2266H40.4048C43.1877 39.2266 45.5382 38.2944 47.4565 36.4302C49.4019 34.5389 50.3745 31.8776 50.3745 28.4463C50.3745 25.8796 49.3613 23.583 47.335 21.5566C45.3086 19.5033 42.9985 18.4766 40.4048 18.4766H15.3589V71H12.4409V15.5586H40.4048C43.8091 15.5586 46.8081 16.869 49.4019 19.4897C51.9956 22.1105 53.2925 25.096 53.2925 28.4463C53.2925 32.5801 52.0361 35.9033 49.5234 38.416C47.0107 40.9017 43.9712 42.1445 40.4048 42.1445H23.4644V39.2266ZM23.4644 45.0625H40.4048C43.2147 45.0625 45.8084 44.387 48.186 43.0361C50.5907 41.6582 52.5225 39.6859 53.9814 37.1191C55.4674 34.5524 56.2104 31.6615 56.2104 28.4463C56.2104 24.2855 54.6164 20.611 51.4282 17.4229C48.2671 14.2347 44.5926 12.6406 40.4048 12.6406H9.52295V71H6.60498V9.72266H40.4048C43.674 9.72266 46.7541 10.5872 49.645 12.3164C52.536 14.0456 54.8325 16.3556 56.5347 19.2466C58.2638 22.1375 59.1284 25.2041 59.1284 28.4463C59.1284 32.1208 58.2638 35.471 56.5347 38.4971C54.8055 41.4961 52.509 43.8332 49.645 45.5083C46.8081 47.1564 43.728 47.9805 40.4048 47.9805H23.4644V45.0625ZM23.4644 50.8984H40.4048C43.2957 50.8984 46.0651 50.3311 48.7129 49.1963C51.3607 48.0345 53.6572 46.481 55.6025 44.5356C57.5749 42.5633 59.1419 40.1857 60.3037 37.4028C61.4655 34.5929 62.0464 31.6074 62.0464 28.4463C62.0464 24.6637 61.0602 21.1108 59.0879 17.7876C57.1156 14.4373 54.4543 11.776 51.104 9.80371C47.7808 7.80436 44.2144 6.80469 40.4048 6.80469H3.68701V71H0.769043V3.88672H40.4048C44.7277 3.88672 48.7804 5.02148 52.563 7.29102C56.3455 9.53353 59.3581 12.5461 61.6006 16.3286C63.8431 20.1112 64.9644 24.1504 64.9644 28.4463C64.9644 32.2829 64.3024 35.8223 62.9785 39.0645C61.6546 42.2796 59.8714 44.9544 57.6289 47.0889C55.3864 49.2233 52.7791 50.8849 49.8071 52.0737C46.8351 53.2355 43.701 53.8164 40.4048 53.8164H23.4644V50.8984ZM21.1948 71H18.2769V21.3945H40.4048C42.3231 21.3945 43.9712 22.097 45.3491 23.502C46.7541 24.9069 47.4565 26.555 47.4565 28.4463C47.4565 33.6878 45.106 36.3086 40.4048 36.3086H23.4644V33.3906H40.4048C41.7017 33.3906 42.7148 33.0259 43.4443 32.2964C44.1738 31.5669 44.5386 30.2835 44.5386 28.4463C44.5386 27.2575 44.1333 26.2713 43.3228 25.4878C42.5392 24.7043 41.5666 24.3125 40.4048 24.3125H21.1948V71ZM71.3677 12.6406H74.2856V71H71.3677V12.6406ZM88.8755 12.6406H91.7935V56.4102H113.313V59.3281H91.7935V62.2461H113.313V65.1641H91.7935V68.082H113.313V71H88.8755V12.6406ZM83.0396 12.6406H85.9575V71H83.0396V12.6406ZM77.2036 12.6406H80.1216V71H77.2036V12.6406ZM161.176 42.2256C161.176 38.7673 160.109 36.0924 157.975 34.2012C155.84 32.3099 153.017 31.3643 149.504 31.3643C146.532 31.3643 143.979 32.391 141.845 34.4443C139.71 36.4977 138.643 38.9564 138.643 41.8203C138.643 43.4414 138.859 44.9004 139.292 46.1973C139.724 47.4671 140.305 48.5343 141.034 49.3989C141.791 50.2365 142.682 50.939 143.709 51.5063C144.736 52.0467 145.803 52.4385 146.911 52.6816C148.045 52.9248 149.248 53.0464 150.518 53.0464C153.598 53.0464 156.408 52.2899 158.947 50.7769V53.6948C156.326 55.0728 153.503 55.7617 150.477 55.7617C148.532 55.7617 146.694 55.505 144.965 54.9917C143.263 54.4513 141.71 53.6543 140.305 52.6006C138.9 51.5199 137.778 50.0609 136.941 48.2236C136.13 46.3594 135.725 44.2249 135.725 41.8203C135.725 38.0918 137.035 34.9307 139.656 32.3369C142.277 29.7432 145.56 28.4463 149.504 28.4463C153.854 28.4463 157.367 29.6756 160.042 32.1343C162.743 34.5659 164.094 37.9297 164.094 42.2256V71H161.176V42.2256ZM169.93 42.2256V71H167.012V42.2256C167.012 37.1191 165.378 33.0664 162.108 30.0674C158.839 27.0413 154.638 25.5283 149.504 25.5283C144.749 25.5283 140.778 27.1089 137.589 30.27C134.401 33.4312 132.807 37.2812 132.807 41.8203C132.807 44.5762 133.28 47.0483 134.226 49.2368C135.198 51.4253 136.509 53.1815 138.157 54.5054C139.805 55.8293 141.642 56.8424 143.668 57.5449C145.722 58.2204 147.883 58.5581 150.153 58.5581C153.233 58.5581 156.164 57.8421 158.947 56.4102V59.4902C156.029 60.7061 153.084 61.314 150.112 61.314C147.438 61.314 144.898 60.9087 142.493 60.0981C140.089 59.2606 137.941 58.0583 136.049 56.4912C134.158 54.8971 132.659 52.8438 131.551 50.3311C130.443 47.7913 129.889 44.9544 129.889 41.8203C129.889 36.4977 131.767 31.9722 135.522 28.2437C139.305 24.4881 143.966 22.6104 149.504 22.6104C153.395 22.6104 156.88 23.4074 159.96 25.0015C163.041 26.5685 165.472 28.8516 167.255 31.8506C169.039 34.8496 169.93 38.3079 169.93 42.2256ZM175.766 42.2256V71H172.848V42.2256C172.848 37.7676 171.821 33.8229 169.768 30.3916C167.742 26.9333 164.959 24.2855 161.419 22.4482C157.88 20.611 153.908 19.6924 149.504 19.6924C145.317 19.6924 141.493 20.6921 138.035 22.6914C134.577 24.6637 131.861 27.3385 129.889 30.7158C127.944 34.0931 126.971 37.7946 126.971 41.8203C126.971 45.2786 127.606 48.4398 128.876 51.3037C130.146 54.1406 131.848 56.4777 133.982 58.3149C136.144 60.1522 138.589 61.5841 141.318 62.6108C144.074 63.6105 146.951 64.1104 149.95 64.1104C153.003 64.1104 156.002 63.4754 158.947 62.2056V65.1641C155.867 66.3258 152.841 66.9067 149.869 66.9067C145.195 66.9067 140.899 65.853 136.981 63.7456C133.064 61.6382 129.93 58.6527 127.579 54.7891C125.229 50.9255 124.053 46.6025 124.053 41.8203C124.053 38.416 124.702 35.1738 125.999 32.0938C127.322 29.0137 129.106 26.3524 131.348 24.1099C133.591 21.8674 136.292 20.0841 139.454 18.7603C142.615 17.4364 145.965 16.7744 149.504 16.7744C154.449 16.7744 158.907 17.8281 162.878 19.9355C166.877 22.043 170.025 25.042 172.321 28.9326C174.618 32.8232 175.766 37.2542 175.766 42.2256ZM181.602 42.2256V71H178.684V42.2256C178.684 36.7139 177.401 31.7965 174.834 27.4736C172.267 23.1237 168.768 19.7734 164.337 17.4229C159.906 15.0452 154.962 13.8564 149.504 13.8564C144.263 13.8564 139.467 15.1128 135.117 17.6255C130.767 20.1382 127.349 23.5425 124.864 27.8384C122.378 32.1073 121.135 36.7679 121.135 41.8203C121.135 45.1436 121.662 48.3047 122.716 51.3037C123.797 54.2757 125.256 56.883 127.093 59.1255C128.957 61.341 131.091 63.2593 133.496 64.8804C135.928 66.5015 138.535 67.7308 141.318 68.5684C144.128 69.4059 146.978 69.8247 149.869 69.8247C153.057 69.8247 156.083 69.2168 158.947 68.001V71C155.948 72.0537 152.868 72.5806 149.707 72.5806C146.438 72.5806 143.25 72.1213 140.143 71.2026C137.062 70.284 134.199 68.9331 131.551 67.1499C128.93 65.3397 126.62 63.2188 124.621 60.7871C122.621 58.3285 121.054 55.4645 119.919 52.1953C118.785 48.9261 118.217 45.4678 118.217 41.8203C118.217 37.6325 119.001 33.6473 120.568 29.8647C122.162 26.0552 124.323 22.7725 127.052 20.0166C129.808 17.2337 133.131 15.0317 137.022 13.4106C140.94 11.7625 145.1 10.9385 149.504 10.9385C153.989 10.9385 158.204 11.695 162.149 13.208C166.094 14.721 169.498 16.8285 172.362 19.5303C175.226 22.2051 177.482 25.5013 179.13 29.4189C180.778 33.3366 181.602 37.6055 181.602 42.2256ZM241.785 12.6406H244.703L226.344 51.3037V71H223.426V51.3037L241.785 12.6406ZM235.949 12.6406H238.867L220.508 51.3037V71H217.59V51.3037L235.949 12.6406ZM230.113 12.6406H233.031L214.672 51.3037V71H211.754V51.3037L230.113 12.6406ZM224.277 12.6406H227.195L208.836 51.3037V71H205.918V51.3037L186.344 12.6406H189.262L207.337 48.3452L224.277 12.6406ZM192.22 12.6406H195.138L209.606 40.1587L208.147 43.3604L192.22 12.6406ZM198.056 12.6406H201.015L212.524 33.7554L211.025 36.957L198.056 12.6406ZM203.973 12.6406H206.891L215.442 27.3926L213.983 30.5942L203.973 12.6406ZM253.791 3.8H296.223V15.896H266.463V31.256H295.071V43.352H266.463V58.904H297.375V71H253.791V3.8ZM324.284 71H312.188V23.384H324.284V30.488H326.012C327.1 27.8 328.86 25.72 331.292 24.248C333.724 22.776 336.572 22.04 339.836 22.04C342.14 22.04 344.284 22.424 346.268 23.192C348.316 23.896 350.108 25.016 351.644 26.552C353.18 28.088 354.364 30.04 355.196 32.408C356.092 34.776 356.54 37.592 356.54 40.856V71H344.444V43.928C344.444 40.536 343.612 37.88 341.948 35.96C340.348 33.976 338.012 32.984 334.94 32.984C331.356 32.984 328.668 34.2 326.876 36.632C325.148 39 324.284 42.2 324.284 46.232V71ZM404.953 64.088H403.225C402.713 65.176 402.073 66.232 401.305 67.256C400.601 68.216 399.641 69.08 398.425 69.848C397.273 70.616 395.865 71.224 394.201 71.672C392.601 72.12 390.649 72.344 388.345 72.344C385.401 72.344 382.649 71.832 380.089 70.808C377.593 69.72 375.385 68.152 373.465 66.104C371.609 63.992 370.137 61.432 369.049 58.424C368.025 55.416 367.513 51.96 367.513 48.056V46.328C367.513 42.488 368.057 39.064 369.145 36.056C370.297 33.048 371.833 30.52 373.753 28.472C375.737 26.36 378.009 24.76 380.569 23.672C383.193 22.584 385.945 22.04 388.825 22.04C392.665 22.04 395.705 22.776 397.945 24.248C400.185 25.656 401.945 27.672 403.225 30.296H404.953V23.384H417.049V82.712C417.049 84.888 416.345 86.68 414.937 88.088C413.593 89.496 411.833 90.2 409.657 90.2H377.593V78.68H402.361C404.089 78.68 404.953 77.72 404.953 75.8V64.088ZM392.281 60.824C396.057 60.824 399.097 59.64 401.401 57.272C403.769 54.84 404.953 51.672 404.953 47.768V46.616C404.953 42.712 403.769 39.576 401.401 37.208C399.097 34.776 396.057 33.56 392.281 33.56C388.505 33.56 385.433 34.744 383.065 37.112C380.761 39.416 379.609 42.584 379.609 46.616V47.768C379.609 51.8 380.761 55 383.065 57.368C385.433 59.672 388.505 60.824 392.281 60.824ZM430.615 59.48H446.743V34.904H431.767V23.384H458.839V59.48H472.663V71H430.615V59.48ZM461.815 9.272C461.815 10.552 461.559 11.768 461.047 12.92C460.599 14.008 459.959 14.968 459.127 15.8C458.295 16.568 457.303 17.208 456.151 17.72C455.063 18.168 453.911 18.392 452.695 18.392C451.415 18.392 450.231 18.168 449.143 17.72C448.055 17.208 447.095 16.568 446.263 15.8C445.431 14.968 444.759 14.008 444.247 12.92C443.799 11.768 443.575 10.552 443.575 9.272C443.575 7.992 443.799 6.808 444.247 5.72C444.759 4.568 445.431 3.608 446.263 2.84C447.095 2.008 448.055 1.368 449.143 0.919998C450.231 0.407997 451.415 0.151997 452.695 0.151997C453.911 0.151997 455.063 0.407997 456.151 0.919998C457.303 1.368 458.295 2.008 459.127 2.84C459.959 3.608 460.599 4.568 461.047 5.72C461.559 6.808 461.815 7.992 461.815 9.272ZM500.628 71H488.532V23.384H500.628V30.488H502.356C503.444 27.8 505.204 25.72 507.636 24.248C510.068 22.776 512.916 22.04 516.18 22.04C518.484 22.04 520.628 22.424 522.612 23.192C524.66 23.896 526.452 25.016 527.988 26.552C529.524 28.088 530.708 30.04 531.54 32.408C532.436 34.776 532.884 37.592 532.884 40.856V71H520.788V43.928C520.788 40.536 519.956 37.88 518.292 35.96C516.692 33.976 514.356 32.984 511.284 32.984C507.7 32.984 505.012 34.2 503.22 36.632C501.492 39 500.628 42.2 500.628 46.232V71ZM557.969 51.128C558.033 52.536 558.353 53.848 558.929 55.064C559.569 56.216 560.401 57.24 561.425 58.136C562.513 58.968 563.729 59.64 565.073 60.152C566.481 60.6 567.953 60.824 569.489 60.824C572.497 60.824 574.801 60.312 576.401 59.288C578.001 58.2 579.153 56.92 579.857 55.448L590.225 61.208C589.649 62.424 588.849 63.704 587.825 65.048C586.801 66.328 585.457 67.512 583.793 68.6C582.193 69.688 580.209 70.584 577.841 71.288C575.537 71.992 572.817 72.344 569.681 72.344C566.097 72.344 562.833 71.768 559.889 70.616C556.945 69.464 554.385 67.8 552.209 65.624C550.097 63.448 548.433 60.792 547.217 57.656C546.065 54.52 545.489 50.968 545.489 47V46.424C545.489 42.776 546.097 39.448 547.313 36.44C548.593 33.432 550.321 30.872 552.497 28.76C554.673 26.648 557.201 25.016 560.081 23.864C563.025 22.648 566.161 22.04 569.489 22.04C573.585 22.04 577.105 22.776 580.049 24.248C582.993 25.656 585.425 27.48 587.345 29.72C589.265 31.896 590.673 34.328 591.569 37.016C592.465 39.64 592.913 42.2 592.913 44.696V51.128H557.969ZM569.393 32.984C566.321 32.984 563.825 33.784 561.905 35.384C559.985 36.92 558.737 38.712 558.161 40.76H580.625C580.241 38.52 579.025 36.664 576.977 35.192C574.993 33.72 572.465 32.984 569.393 32.984Z" fill="black"/>
</svg>
