<svg width="1215" height="1215" viewBox="0 0 1215 1215" fill="none" xmlns="http://www.w3.org/2000/svg">
<path d="M891.638 891.637C1048.63 734.649 1048.63 480.123 891.642 323.138C734.657 166.153 480.131 166.154 323.143 323.143C166.155 480.131 166.153 734.657 323.138 891.642C480.124 1048.63 734.649 1048.63 891.638 891.637Z" fill="#474747"/>
<path d="M891.638 891.637C1048.63 734.649 1048.63 480.123 891.642 323.138C734.657 166.153 480.131 166.154 323.143 323.143C166.155 480.131 166.153 734.657 323.138 891.642C480.124 1048.63 734.649 1048.63 891.638 891.637Z" fill="#2E324C"/>
<path d="M891.638 891.637C1048.63 734.649 1048.63 480.123 891.642 323.138C734.657 166.153 480.131 166.154 323.143 323.143C166.155 480.131 166.153 734.657 323.138 891.642C480.124 1048.63 734.649 1048.63 891.638 891.637Z" stroke="#454968" stroke-width="55"/>
<mask id="mask0_111_240" style="mask-type:alpha" maskUnits="userSpaceOnUse" x="232" y="232" width="750" height="750">
<path d="M872.204 872.217C1018.46 725.966 1018.46 488.846 872.204 342.594C725.953 196.343 488.832 196.343 342.581 342.594C196.33 488.846 196.33 725.966 342.581 872.217C488.832 1018.47 725.953 1018.47 872.204 872.217Z" fill="#474747"/>
</mask>
<g mask="url(#mask0_111_240)">
<rect x="607.395" y="77.7817" width="126" height="749" transform="rotate(45 607.395 77.7817)" fill="#D82121"/>
<rect x="696.488" y="166.877" width="123" height="749" transform="rotate(45 696.488 166.877)" fill="#ED6237"/>
<rect x="783.465" y="253.852" width="127" height="749" transform="rotate(45 783.465 253.852)" fill="#F2B705"/>
<rect x="873.266" y="343.654" width="124" height="749" transform="rotate(45 873.266 343.654)" fill="#043C3F"/>
<rect x="960.949" y="431.335" width="125" height="749" transform="rotate(45 960.949 431.335)" fill="#216F73"/>
<rect x="1049.33" y="519.862" width="124" height="749" transform="rotate(45 1049.33 519.862)" fill="#4CA5FF"/>
</g>
</svg>
