<svg width="52" height="200" viewBox="0 0 52 200" fill="none" xmlns="http://www.w3.org/2000/svg">
<path fill-rule="evenodd" clip-rule="evenodd" d="M50.9659 177.489L28.4966 199.01C27.1178 200.33 24.8822 200.33 23.5034 199.01L1.03412 177.489C-0.344707 176.168 -0.344707 174.027 1.03412 172.707C2.41295 171.386 4.64847 171.386 6.0273 172.707L22.4693 188.454V3.38164H29.5307V188.454L45.9727 172.707C47.3515 171.386 49.5871 171.386 50.9659 172.707C52.3447 174.027 52.3447 176.168 50.9659 177.489Z" fill="black"/>
<path fill-rule="evenodd" clip-rule="evenodd" d="M1.03412 22.5111L23.5034 0.990461C24.8822 -0.330154 27.1178 -0.330154 28.4966 0.990461L50.9659 22.5111C52.3447 23.8317 52.3447 25.9728 50.9659 27.2935C49.5871 28.6141 47.3515 28.6141 45.9727 27.2935L29.5307 11.5457V196.618H22.4693V11.5457L6.0273 27.2935C4.64847 28.6141 2.41295 28.6141 1.03412 27.2935C-0.344704 25.9728 -0.344704 23.8317 1.03412 22.5111Z" fill="black"/>
</svg>
